<mxfile host="app.diagrams.net" modified="2022-06-25T08:17:50.041Z" agent="5.0 (Windows NT 10.0; Win64; x64) AppleWebKit/537.36 (KHTML, like Gecko) Chrome/102.0.5005.136 Safari/537.36" etag="_K0eEzVeVGcMSA12vFvU" version="20.0.3" type="github">
  <diagram id="IYoyggE0i1WlJIq826gj" name="Page-1">
    <mxGraphModel dx="1003" dy="618" grid="1" gridSize="10" guides="1" tooltips="1" connect="1" arrows="1" fold="1" page="1" pageScale="1" pageWidth="827" pageHeight="1169" math="0" shadow="0">
      <root>
        <mxCell id="0" />
        <mxCell id="1" parent="0" />
      </root>
    </mxGraphModel>
  </diagram>
</mxfile>
